<mxfile host="app.diagrams.net" modified="2023-08-07T03:09:18.255Z" agent="Mozilla/5.0 (Macintosh; Intel Mac OS X 10_15_7) AppleWebKit/537.36 (KHTML, like Gecko) Chrome/115.0.0.0 Safari/537.36" etag="3Ay4ntzib_tgHMQt5sad" version="21.5.2" type="github">
  <diagram name="Page-1" id="wFu2enpn_MLQuZ8vrpeb">
    <mxGraphModel dx="1235" dy="679" grid="1" gridSize="10" guides="1" tooltips="1" connect="1" arrows="1" fold="1" page="1" pageScale="1" pageWidth="850" pageHeight="1100" math="0" shadow="0">
      <root>
        <mxCell id="0" />
        <mxCell id="1" parent="0" />
        <mxCell id="R5SJ9cOSsibG-rRntTWK-1" style="edgeStyle=orthogonalEdgeStyle;rounded=0;orthogonalLoop=1;jettySize=auto;html=1;exitX=0.5;exitY=1;exitDx=0;exitDy=0;entryX=0.5;entryY=0;entryDx=0;entryDy=0;" parent="1" source="R5SJ9cOSsibG-rRntTWK-2" target="R5SJ9cOSsibG-rRntTWK-4" edge="1">
          <mxGeometry relative="1" as="geometry" />
        </mxCell>
        <mxCell id="R5SJ9cOSsibG-rRntTWK-2" value="프로그램 시작" style="rounded=1;whiteSpace=wrap;html=1;fontSize=12;glass=0;strokeWidth=1;shadow=0;" parent="1" vertex="1">
          <mxGeometry x="130" y="100" width="120" height="40" as="geometry" />
        </mxCell>
        <mxCell id="R5SJ9cOSsibG-rRntTWK-3" style="edgeStyle=orthogonalEdgeStyle;rounded=0;orthogonalLoop=1;jettySize=auto;html=1;entryX=0.5;entryY=0;entryDx=0;entryDy=0;" parent="1" source="R5SJ9cOSsibG-rRntTWK-4" target="R5SJ9cOSsibG-rRntTWK-13" edge="1">
          <mxGeometry relative="1" as="geometry" />
        </mxCell>
        <mxCell id="R5SJ9cOSsibG-rRntTWK-4" value="프롬프트 입력대기" style="rounded=1;whiteSpace=wrap;html=1;fontSize=12;glass=0;strokeWidth=1;shadow=0;" parent="1" vertex="1">
          <mxGeometry x="130" y="180" width="120" height="40" as="geometry" />
        </mxCell>
        <mxCell id="R5SJ9cOSsibG-rRntTWK-5" style="edgeStyle=orthogonalEdgeStyle;rounded=0;orthogonalLoop=1;jettySize=auto;html=1;exitX=0.5;exitY=1;exitDx=0;exitDy=0;" parent="1" source="R5SJ9cOSsibG-rRntTWK-9" target="R5SJ9cOSsibG-rRntTWK-10" edge="1">
          <mxGeometry relative="1" as="geometry" />
        </mxCell>
        <mxCell id="R5SJ9cOSsibG-rRntTWK-6" value="Yes" style="edgeLabel;html=1;align=center;verticalAlign=middle;resizable=0;points=[];" parent="R5SJ9cOSsibG-rRntTWK-5" vertex="1" connectable="0">
          <mxGeometry x="-0.28" y="1" relative="1" as="geometry">
            <mxPoint x="19" y="8" as="offset" />
          </mxGeometry>
        </mxCell>
        <mxCell id="R5SJ9cOSsibG-rRntTWK-7" style="edgeStyle=orthogonalEdgeStyle;rounded=0;orthogonalLoop=1;jettySize=auto;html=1;entryX=0;entryY=0.5;entryDx=0;entryDy=0;" parent="1" source="R5SJ9cOSsibG-rRntTWK-9" target="R5SJ9cOSsibG-rRntTWK-11" edge="1">
          <mxGeometry relative="1" as="geometry" />
        </mxCell>
        <mxCell id="R5SJ9cOSsibG-rRntTWK-8" value="No" style="edgeLabel;html=1;align=center;verticalAlign=middle;resizable=0;points=[];" parent="R5SJ9cOSsibG-rRntTWK-7" vertex="1" connectable="0">
          <mxGeometry x="-0.21" y="-4" relative="1" as="geometry">
            <mxPoint y="-24" as="offset" />
          </mxGeometry>
        </mxCell>
        <mxCell id="R5SJ9cOSsibG-rRntTWK-9" value="EOF?" style="rhombus;whiteSpace=wrap;html=1;shadow=0;fontFamily=Helvetica;fontSize=12;align=center;strokeWidth=1;spacing=6;spacingTop=-4;" parent="1" vertex="1">
          <mxGeometry x="100" y="350" width="180" height="80" as="geometry" />
        </mxCell>
        <mxCell id="R5SJ9cOSsibG-rRntTWK-10" value="프로그램 종료" style="rounded=1;whiteSpace=wrap;html=1;fontSize=12;glass=0;strokeWidth=1;shadow=0;" parent="1" vertex="1">
          <mxGeometry x="130" y="500" width="120" height="40" as="geometry" />
        </mxCell>
        <mxCell id="OQM9jLcX4HTg5TTtoATR-2" style="edgeStyle=orthogonalEdgeStyle;rounded=0;orthogonalLoop=1;jettySize=auto;html=1;entryX=0;entryY=0.5;entryDx=0;entryDy=0;" edge="1" parent="1" source="R5SJ9cOSsibG-rRntTWK-11" target="OQM9jLcX4HTg5TTtoATR-1">
          <mxGeometry relative="1" as="geometry" />
        </mxCell>
        <mxCell id="R5SJ9cOSsibG-rRntTWK-11" value="Parsing" style="rounded=1;whiteSpace=wrap;html=1;fontSize=12;glass=0;strokeWidth=1;shadow=0;" parent="1" vertex="1">
          <mxGeometry x="330" y="370" width="120" height="40" as="geometry" />
        </mxCell>
        <mxCell id="R5SJ9cOSsibG-rRntTWK-12" style="edgeStyle=orthogonalEdgeStyle;rounded=0;orthogonalLoop=1;jettySize=auto;html=1;exitX=0.5;exitY=1;exitDx=0;exitDy=0;entryX=0.5;entryY=0;entryDx=0;entryDy=0;" parent="1" source="R5SJ9cOSsibG-rRntTWK-13" target="R5SJ9cOSsibG-rRntTWK-9" edge="1">
          <mxGeometry relative="1" as="geometry" />
        </mxCell>
        <mxCell id="R5SJ9cOSsibG-rRntTWK-13" value="프롬프트 입력" style="rounded=1;whiteSpace=wrap;html=1;fontSize=12;glass=0;strokeWidth=1;shadow=0;" parent="1" vertex="1">
          <mxGeometry x="130" y="260" width="120" height="40" as="geometry" />
        </mxCell>
        <mxCell id="OQM9jLcX4HTg5TTtoATR-4" style="edgeStyle=orthogonalEdgeStyle;rounded=0;orthogonalLoop=1;jettySize=auto;html=1;entryX=1;entryY=0.5;entryDx=0;entryDy=0;" edge="1" parent="1" source="OQM9jLcX4HTg5TTtoATR-1" target="OQM9jLcX4HTg5TTtoATR-3">
          <mxGeometry relative="1" as="geometry" />
        </mxCell>
        <mxCell id="OQM9jLcX4HTg5TTtoATR-23" value="Yes" style="edgeLabel;html=1;align=center;verticalAlign=middle;resizable=0;points=[];" vertex="1" connectable="0" parent="OQM9jLcX4HTg5TTtoATR-4">
          <mxGeometry x="-0.4653" y="-2" relative="1" as="geometry">
            <mxPoint x="17" as="offset" />
          </mxGeometry>
        </mxCell>
        <mxCell id="OQM9jLcX4HTg5TTtoATR-7" style="edgeStyle=orthogonalEdgeStyle;rounded=0;orthogonalLoop=1;jettySize=auto;html=1;entryX=0;entryY=0.5;entryDx=0;entryDy=0;" edge="1" parent="1" source="OQM9jLcX4HTg5TTtoATR-1" target="OQM9jLcX4HTg5TTtoATR-6">
          <mxGeometry relative="1" as="geometry" />
        </mxCell>
        <mxCell id="OQM9jLcX4HTg5TTtoATR-22" value="No" style="edgeLabel;html=1;align=center;verticalAlign=middle;resizable=0;points=[];" vertex="1" connectable="0" parent="OQM9jLcX4HTg5TTtoATR-7">
          <mxGeometry x="-0.4276" y="3" relative="1" as="geometry">
            <mxPoint y="-17" as="offset" />
          </mxGeometry>
        </mxCell>
        <mxCell id="OQM9jLcX4HTg5TTtoATR-1" value="heredoc?" style="rhombus;whiteSpace=wrap;html=1;shadow=0;fontFamily=Helvetica;fontSize=12;align=center;strokeWidth=1;spacing=6;spacingTop=-4;" vertex="1" parent="1">
          <mxGeometry x="510" y="355" width="130" height="70" as="geometry" />
        </mxCell>
        <mxCell id="OQM9jLcX4HTg5TTtoATR-5" style="edgeStyle=orthogonalEdgeStyle;rounded=0;orthogonalLoop=1;jettySize=auto;html=1;entryX=0.5;entryY=1;entryDx=0;entryDy=0;" edge="1" parent="1" source="OQM9jLcX4HTg5TTtoATR-3" target="R5SJ9cOSsibG-rRntTWK-11">
          <mxGeometry relative="1" as="geometry">
            <Array as="points">
              <mxPoint x="390" y="520" />
            </Array>
          </mxGeometry>
        </mxCell>
        <mxCell id="OQM9jLcX4HTg5TTtoATR-3" value="heredoc 파일 생성" style="rounded=1;whiteSpace=wrap;html=1;fontSize=12;glass=0;strokeWidth=1;shadow=0;" vertex="1" parent="1">
          <mxGeometry x="425" y="500" width="120" height="40" as="geometry" />
        </mxCell>
        <mxCell id="OQM9jLcX4HTg5TTtoATR-12" style="edgeStyle=orthogonalEdgeStyle;rounded=0;orthogonalLoop=1;jettySize=auto;html=1;entryX=0;entryY=0.5;entryDx=0;entryDy=0;" edge="1" parent="1" source="OQM9jLcX4HTg5TTtoATR-6" target="OQM9jLcX4HTg5TTtoATR-11">
          <mxGeometry relative="1" as="geometry" />
        </mxCell>
        <mxCell id="OQM9jLcX4HTg5TTtoATR-6" value="Excuting" style="rounded=1;whiteSpace=wrap;html=1;fontSize=12;glass=0;strokeWidth=1;shadow=0;" vertex="1" parent="1">
          <mxGeometry x="680" y="370" width="120" height="40" as="geometry" />
        </mxCell>
        <mxCell id="OQM9jLcX4HTg5TTtoATR-19" style="edgeStyle=orthogonalEdgeStyle;rounded=0;orthogonalLoop=1;jettySize=auto;html=1;entryX=1;entryY=0.5;entryDx=0;entryDy=0;" edge="1" parent="1" source="OQM9jLcX4HTg5TTtoATR-8" target="R5SJ9cOSsibG-rRntTWK-4">
          <mxGeometry relative="1" as="geometry">
            <Array as="points">
              <mxPoint x="1080" y="200" />
            </Array>
          </mxGeometry>
        </mxCell>
        <mxCell id="OQM9jLcX4HTg5TTtoATR-8" value="built-in pool에 &lt;br&gt;있는 함수 실행" style="rounded=1;whiteSpace=wrap;html=1;fontSize=12;glass=0;strokeWidth=1;shadow=0;" vertex="1" parent="1">
          <mxGeometry x="1020" y="370" width="120" height="40" as="geometry" />
        </mxCell>
        <mxCell id="OQM9jLcX4HTg5TTtoATR-14" style="edgeStyle=orthogonalEdgeStyle;rounded=0;orthogonalLoop=1;jettySize=auto;html=1;entryX=0;entryY=0.5;entryDx=0;entryDy=0;" edge="1" parent="1" source="OQM9jLcX4HTg5TTtoATR-11" target="OQM9jLcX4HTg5TTtoATR-8">
          <mxGeometry relative="1" as="geometry" />
        </mxCell>
        <mxCell id="OQM9jLcX4HTg5TTtoATR-24" value="Yes" style="edgeLabel;html=1;align=center;verticalAlign=middle;resizable=0;points=[];" vertex="1" connectable="0" parent="OQM9jLcX4HTg5TTtoATR-14">
          <mxGeometry x="-0.02" y="-2" relative="1" as="geometry">
            <mxPoint x="-1" y="-22" as="offset" />
          </mxGeometry>
        </mxCell>
        <mxCell id="OQM9jLcX4HTg5TTtoATR-21" style="edgeStyle=orthogonalEdgeStyle;rounded=0;orthogonalLoop=1;jettySize=auto;html=1;entryX=0.5;entryY=1;entryDx=0;entryDy=0;" edge="1" parent="1" source="OQM9jLcX4HTg5TTtoATR-11" target="OQM9jLcX4HTg5TTtoATR-17">
          <mxGeometry relative="1" as="geometry" />
        </mxCell>
        <mxCell id="OQM9jLcX4HTg5TTtoATR-25" value="No" style="edgeLabel;html=1;align=center;verticalAlign=middle;resizable=0;points=[];" vertex="1" connectable="0" parent="OQM9jLcX4HTg5TTtoATR-21">
          <mxGeometry x="-0.3673" relative="1" as="geometry">
            <mxPoint x="15" as="offset" />
          </mxGeometry>
        </mxCell>
        <mxCell id="OQM9jLcX4HTg5TTtoATR-11" value="built-in?" style="rhombus;whiteSpace=wrap;html=1;shadow=0;fontFamily=Helvetica;fontSize=12;align=center;strokeWidth=1;spacing=6;spacingTop=-4;" vertex="1" parent="1">
          <mxGeometry x="840" y="355" width="130" height="70" as="geometry" />
        </mxCell>
        <mxCell id="OQM9jLcX4HTg5TTtoATR-20" style="edgeStyle=orthogonalEdgeStyle;rounded=0;orthogonalLoop=1;jettySize=auto;html=1;entryX=1;entryY=0.5;entryDx=0;entryDy=0;" edge="1" parent="1" source="OQM9jLcX4HTg5TTtoATR-17" target="R5SJ9cOSsibG-rRntTWK-4">
          <mxGeometry relative="1" as="geometry">
            <Array as="points">
              <mxPoint x="905" y="200" />
            </Array>
          </mxGeometry>
        </mxCell>
        <mxCell id="OQM9jLcX4HTg5TTtoATR-17" value="fork&lt;br&gt;&amp;amp;&lt;br&gt;execve" style="rounded=1;whiteSpace=wrap;html=1;fontSize=12;glass=0;strokeWidth=1;shadow=0;" vertex="1" parent="1">
          <mxGeometry x="845" y="270" width="120" height="40" as="geometry" />
        </mxCell>
      </root>
    </mxGraphModel>
  </diagram>
</mxfile>
